<?xml version="1.0" encoding="UTF-8"?><svg xmlns="http://www.w3.org/2000/svg" xmlns:xlink="http://www.w3.org/1999/xlink" contentScriptType="application/ecmascript" contentStyleType="text/css" height="630px" preserveAspectRatio="none" style="width:1852px;height:630px;" version="1.1" viewBox="0 0 1852 630" width="1852px" zoomAndPan="magnify">
    <defs/>
    <g>
        <line style="stroke: #000000; stroke-width: 1.7;" x1="10" x2="10" y1="10" y2="610.9375"/>
        <line style="stroke: #000000; stroke-width: 1.7;" x1="1851" x2="1851" y1="10" y2="610.9375"/>
        <text fill="#000000" font-family="sans-serif" font-size="12" lengthAdjust="spacingAndGlyphs" textLength="34" x="15" y="22.457">Wallet</text>
        <line style="stroke: #000000; stroke-width: 1.0;" x1="10" x2="50" y1="26.0938" y2="26.0938"/>
        <line style="stroke: #000000; stroke-width: 1.0;" x1="50" x2="60" y1="26.0938" y2="10"/>
        <line style="stroke: #038048; stroke-width: 1.5;" x1="246" x2="296" y1="160.1875" y2="160.1875"/>
        <line style="stroke: #038048; stroke-width: 1.5;" x1="296" x2="346" y1="140.1875" y2="140.1875"/>
        <line style="stroke: #038048; stroke-width: 1.5;" x1="346" x2="396" y1="120.1875" y2="120.1875"/>
        <line style="stroke: #038048; stroke-width: 1.5;" x1="396" x2="446" y1="100.1875" y2="100.1875"/>
        <line style="stroke: #038048; stroke-width: 1.5;" x1="446" x2="496" y1="80.1875" y2="80.1875"/>
        <line style="stroke: #038048; stroke-width: 1.5;" x1="496" x2="696" y1="60.1875" y2="60.1875"/>
        <line style="stroke: #038048; stroke-width: 1.5;" x1="696" x2="1796" y1="40.1875" y2="40.1875"/>
        <line style="stroke: #038048; stroke-width: 1.5;" x1="1796" x2="1846" y1="160.1875" y2="160.1875"/>
        <line style="stroke: #038048; stroke-width: 1.5;" x1="296" x2="296" y1="140.1875" y2="160.1875"/>
        <line style="stroke: #038048; stroke-width: 1.5;" x1="346" x2="346" y1="120.1875" y2="140.1875"/>
        <line style="stroke: #038048; stroke-width: 1.5;" x1="396" x2="396" y1="100.1875" y2="120.1875"/>
        <line style="stroke: #038048; stroke-width: 1.5;" x1="446" x2="446" y1="80.1875" y2="100.1875"/>
        <line style="stroke: #038048; stroke-width: 1.5;" x1="496" x2="496" y1="60.1875" y2="80.1875"/>
        <line style="stroke: #038048; stroke-width: 1.5;" x1="696" x2="696" y1="40.1875" y2="60.1875"/>
        <line style="stroke: #038048; stroke-width: 1.5;" x1="1796" x2="1796" y1="160.1875" y2="40.1875"/>
        <line style="stroke: #FF0000; stroke-width: 1.5;" x1="696" x2="996" y1="30.1875" y2="30.1875"/>
        <polygon fill="#FF0000" points="703.5175,27.4513,703.5175,32.9237,696,30.1875" style="stroke: #FF0000; stroke-width: 1.5;"/>
        <polygon fill="#FF0000" points="988.4825,32.9237,988.4825,27.4513,996,30.1875" style="stroke: #FF0000; stroke-width: 1.5;"/>
        <text fill="#000000" font-family="Serif" font-size="14" lengthAdjust="spacingAndGlyphs" textLength="75" x="808.5" y="22.1113">"First period"</text>
        <line style="stroke: #FF0000; stroke-width: 1.5;" x1="996" x2="1496" y1="30.1875" y2="30.1875"/>
        <polygon fill="#FF0000" points="1003.5175,27.4513,1003.5175,32.9237,996,30.1875" style="stroke: #FF0000; stroke-width: 1.5;"/>
        <polygon fill="#FF0000" points="1488.4825,32.9237,1488.4825,27.4513,1496,30.1875" style="stroke: #FF0000; stroke-width: 1.5;"/>
        <text fill="#000000" font-family="Serif" font-size="14" lengthAdjust="spacingAndGlyphs" textLength="81" x="1205.5" y="22.1113">Second period</text>
        <line style="stroke: #FF0000; stroke-width: 1.5;" x1="1496" x2="1746" y1="30.1875" y2="30.1875"/>
        <polygon fill="#FF0000" points="1503.5175,27.4513,1503.5175,32.9237,1496,30.1875" style="stroke: #FF0000; stroke-width: 1.5;"/>
        <polygon fill="#FF0000" points="1738.4825,32.9237,1738.4825,27.4513,1746,30.1875" style="stroke: #FF0000; stroke-width: 1.5;"/>
        <text fill="#000000" font-family="Serif" font-size="14" lengthAdjust="spacingAndGlyphs" textLength="57" x="1592.5" y="22.1113">xth period</text>
        <line style="stroke: #FF0000; stroke-width: 1.5;" x1="1746" x2="1846" y1="30.1875" y2="30.1875"/>
        <polygon fill="#FF0000" points="1753.5175,27.4513,1753.5175,32.9237,1746,30.1875" style="stroke: #FF0000; stroke-width: 1.5;"/>
        <polygon fill="#FF0000" points="1838.4825,32.9237,1838.4825,27.4513,1846,30.1875" style="stroke: #FF0000; stroke-width: 1.5;"/>
        <text fill="#000000" font-family="Serif" font-size="14" lengthAdjust="spacingAndGlyphs" textLength="53" x="1769.5" y="22.1113">No credit</text>
        <text fill="#000000" font-family="sans-serif" font-size="12" lengthAdjust="spacingAndGlyphs" textLength="20" x="15" y="157.5508">Idle</text>
        <text fill="#000000" font-family="sans-serif" font-size="12" lengthAdjust="spacingAndGlyphs" textLength="73" x="15" y="137.5508">Create config</text>
        <text fill="#000000" font-family="sans-serif" font-size="12" lengthAdjust="spacingAndGlyphs" textLength="55" x="15" y="117.5508">Run client</text>
        <text fill="#000000" font-family="sans-serif" font-size="12" lengthAdjust="spacingAndGlyphs" textLength="90" x="15" y="97.5508">Test local status</text>
        <text fill="#000000" font-family="sans-serif" font-size="12" lengthAdjust="spacingAndGlyphs" textLength="103" x="15" y="77.5508">Test remote status</text>
        <text fill="#000000" font-family="sans-serif" font-size="12" lengthAdjust="spacingAndGlyphs" textLength="86" x="15" y="57.5508">Send payment1</text>
        <text fill="#000000" font-family="sans-serif" font-size="12" lengthAdjust="spacingAndGlyphs" textLength="86" x="15" y="37.5508">Send payment2</text>
        <line style="stroke: #000000; stroke-width: 1.7;" x1="10" x2="1851" y1="10" y2="10"/>
        <text fill="#000000" font-family="sans-serif" font-size="12" lengthAdjust="spacingAndGlyphs" textLength="48" x="15" y="202.6445">HaClient</text>
        <line style="stroke: #000000; stroke-width: 1.0;" x1="10" x2="64" y1="206.2813" y2="206.2813"/>
        <line style="stroke: #000000; stroke-width: 1.0;" x1="64" x2="74" y1="206.2813" y2="190.1875"/>
        <line style="stroke: #038048; stroke-width: 1.5;" x1="246" x2="446" y1="240.375" y2="240.375"/>
        <line style="stroke: #038048; stroke-width: 1.5;" x1="446" x2="1796" y1="220.375" y2="220.375"/>
        <line style="stroke: #038048; stroke-width: 1.5;" x1="1796" x2="1846" y1="240.375" y2="240.375"/>
        <line style="stroke: #038048; stroke-width: 1.5;" x1="446" x2="446" y1="220.375" y2="240.375"/>
        <line style="stroke: #038048; stroke-width: 1.5;" x1="1796" x2="1796" y1="240.375" y2="220.375"/>
        <text fill="#000000" font-family="sans-serif" font-size="12" lengthAdjust="spacingAndGlyphs" textLength="20" x="15" y="237.7383">Idle</text>
        <text fill="#000000" font-family="sans-serif" font-size="12" lengthAdjust="spacingAndGlyphs" textLength="60" x="15" y="217.7383">Connected</text>
        <line style="stroke: #000000; stroke-width: 1.7;" x1="10" x2="1851" y1="190.1875" y2="190.1875"/>
        <text fill="#000000" font-family="sans-serif" font-size="12" lengthAdjust="spacingAndGlyphs" textLength="51" x="15" y="282.832">HaServer</text>
        <line style="stroke: #000000; stroke-width: 1.0;" x1="10" x2="67" y1="286.4688" y2="286.4688"/>
        <line style="stroke: #000000; stroke-width: 1.0;" x1="67" x2="77" y1="286.4688" y2="270.375"/>
        <line style="stroke: #038048; stroke-width: 1.5;" x1="246" x2="496" y1="340.5625" y2="340.5625"/>
        <line style="stroke: #038048; stroke-width: 1.5;" x1="496" x2="596" y1="340.5625" y2="340.5625"/>
        <line style="stroke: #038048; stroke-width: 1.5;" x1="596" x2="696" y1="320.5625" y2="320.5625"/>
        <line style="stroke: #038048; stroke-width: 1.5;" x1="696" x2="996" y1="300.5625" y2="300.5625"/>
        <line style="stroke: #038048; stroke-width: 1.5;" x1="996" x2="1496" y1="300.5625" y2="300.5625"/>
        <line style="stroke: #038048; stroke-width: 1.5;" x1="1496" x2="1796" y1="300.5625" y2="300.5625"/>
        <line style="stroke: #038048; stroke-width: 1.5;" x1="1796" x2="1846" y1="340.5625" y2="340.5625"/>
        <line style="stroke: #038048; stroke-width: 1.5;" x1="496" x2="496" y1="340.5625" y2="340.5625"/>
        <line style="stroke: #038048; stroke-width: 1.5;" x1="596" x2="596" y1="320.5625" y2="340.5625"/>
        <line style="stroke: #038048; stroke-width: 1.5;" x1="696" x2="696" y1="300.5625" y2="320.5625"/>
        <line style="stroke: #038048; stroke-width: 1.5;" x1="996" x2="996" y1="300.5625" y2="300.5625"/>
        <line style="stroke: #038048; stroke-width: 1.5;" x1="1496" x2="1496" y1="300.5625" y2="300.5625"/>
        <line style="stroke: #038048; stroke-width: 1.5;" x1="1796" x2="1796" y1="340.5625" y2="300.5625"/>
        <text fill="#000000" font-family="sans-serif" font-size="12" lengthAdjust="spacingAndGlyphs" textLength="80" x="15" y="337.9258">NO_PAYMENT</text>
        <text fill="#000000" font-family="sans-serif" font-size="12" lengthAdjust="spacingAndGlyphs" textLength="95" x="15" y="317.9258">NOT_SPENDING</text>
        <text fill="#000000" font-family="sans-serif" font-size="12" lengthAdjust="spacingAndGlyphs" textLength="17" x="15" y="297.9258">OK</text>
        <line style="stroke: #000000; stroke-width: 1.7;" x1="10" x2="1851" y1="270.375" y2="270.375"/>
        <text fill="#000000" font-family="sans-serif" font-size="12" lengthAdjust="spacingAndGlyphs" textLength="60" x="15" y="383.0195">Dispatcher</text>
        <line style="stroke: #000000; stroke-width: 1.0;" x1="10" x2="76" y1="386.6563" y2="386.6563"/>
        <line style="stroke: #000000; stroke-width: 1.0;" x1="76" x2="86" y1="386.6563" y2="370.5625"/>
        <line style="stroke: #038048; stroke-width: 1.5;" x1="246" x2="496" y1="500.75" y2="500.75"/>
        <line style="stroke: #038048; stroke-width: 1.5;" x1="496" x2="546" y1="480.75" y2="480.75"/>
        <line style="stroke: #038048; stroke-width: 1.5;" x1="546" x2="596" y1="460.75" y2="460.75"/>
        <line style="stroke: #038048; stroke-width: 1.5;" x1="596" x2="646" y1="440.75" y2="440.75"/>
        <line style="stroke: #038048; stroke-width: 1.5;" x1="646" x2="696" y1="420.75" y2="420.75"/>
        <line style="stroke: #038048; stroke-width: 1.5;" x1="696" x2="1496" y1="400.75" y2="400.75"/>
        <line style="stroke: #038048; stroke-width: 1.5;" x1="1496" x2="1796" y1="400.75" y2="400.75"/>
        <line style="stroke: #038048; stroke-width: 1.5;" x1="1796" x2="1846" y1="500.75" y2="500.75"/>
        <line style="stroke: #038048; stroke-width: 1.5;" x1="496" x2="496" y1="480.75" y2="500.75"/>
        <line style="stroke: #038048; stroke-width: 1.5;" x1="546" x2="546" y1="460.75" y2="480.75"/>
        <line style="stroke: #038048; stroke-width: 1.5;" x1="596" x2="596" y1="440.75" y2="460.75"/>
        <line style="stroke: #038048; stroke-width: 1.5;" x1="646" x2="646" y1="420.75" y2="440.75"/>
        <line style="stroke: #038048; stroke-width: 1.5;" x1="696" x2="696" y1="400.75" y2="420.75"/>
        <line style="stroke: #038048; stroke-width: 1.5;" x1="1496" x2="1496" y1="400.75" y2="400.75"/>
        <line style="stroke: #038048; stroke-width: 1.5;" x1="1796" x2="1796" y1="500.75" y2="400.75"/>
        <line style="stroke: #FF0000; stroke-width: 1.5;" x1="646" x2="696" y1="410.75" y2="410.75"/>
        <polygon fill="#FF0000" points="653.5175,408.0138,653.5175,413.4862,646,410.75" style="stroke: #FF0000; stroke-width: 1.5;"/>
        <polygon fill="#FF0000" points="688.4825,413.4862,688.4825,408.0138,696,410.75" style="stroke: #FF0000; stroke-width: 1.5;"/>
        <text fill="#000000" font-family="Serif" font-size="14" lengthAdjust="spacingAndGlyphs" textLength="103" x="619.5" y="402.6738">Maximum timeout</text>
        <text fill="#000000" font-family="sans-serif" font-size="12" lengthAdjust="spacingAndGlyphs" textLength="20" x="15" y="498.1133">Idle</text>
        <text fill="#000000" font-family="sans-serif" font-size="12" lengthAdjust="spacingAndGlyphs" textLength="108" x="15" y="478.1133">Waiting for payment</text>
        <text fill="#000000" font-family="sans-serif" font-size="12" lengthAdjust="spacingAndGlyphs" textLength="231" x="15" y="458.1133">Waiting for first_confirmation,first_minutes</text>
        <text fill="#000000" font-family="sans-serif" font-size="12" lengthAdjust="spacingAndGlyphs" textLength="58" x="15" y="438.1133">Confirmed</text>
        <text fill="#000000" font-family="sans-serif" font-size="12" lengthAdjust="spacingAndGlyphs" textLength="106" x="15" y="418.1133">Waiting for session</text>
        <text fill="#000000" font-family="sans-serif" font-size="12" lengthAdjust="spacingAndGlyphs" textLength="53" x="15" y="398.1133">Spending</text>
        <line style="stroke: #000000; stroke-width: 1.7;" x1="10" x2="1851" y1="370.5625" y2="370.5625"/>
        <text fill="#000000" font-family="sans-serif" font-size="12" lengthAdjust="spacingAndGlyphs" textLength="46" x="15" y="543.207">Browser</text>
        <line style="stroke: #000000; stroke-width: 1.0;" x1="10" x2="62" y1="546.8438" y2="546.8438"/>
        <line style="stroke: #000000; stroke-width: 1.0;" x1="62" x2="72" y1="546.8438" y2="530.75"/>
        <line style="stroke: #038048; stroke-width: 1.5;" x1="246" x2="646" y1="580.9375" y2="580.9375"/>
        <line style="stroke: #038048; stroke-width: 1.5;" x1="646" x2="1796" y1="560.9375" y2="560.9375"/>
        <line style="stroke: #038048; stroke-width: 1.5;" x1="1796" x2="1846" y1="580.9375" y2="580.9375"/>
        <line style="stroke: #038048; stroke-width: 1.5;" x1="646" x2="646" y1="560.9375" y2="580.9375"/>
        <line style="stroke: #038048; stroke-width: 1.5;" x1="1796" x2="1796" y1="580.9375" y2="560.9375"/>
        <text fill="#000000" font-family="sans-serif" font-size="12" lengthAdjust="spacingAndGlyphs" textLength="20" x="15" y="578.3008">Idle</text>
        <text fill="#000000" font-family="sans-serif" font-size="12" lengthAdjust="spacingAndGlyphs" textLength="45" x="15" y="558.3008">Working</text>
        <line style="stroke: #000000; stroke-width: 1.7;" x1="10" x2="1851" y1="530.75" y2="530.75"/>
        <line style="stroke: #000000; stroke-width: 2.0;" x1="246" x2="246" y1="610.9375" y2="615.9375"/>
        <line style="stroke: #000000; stroke-width: 2.0;" x1="296" x2="296" y1="610.9375" y2="615.9375"/>
        <line style="stroke: #000000; stroke-width: 2.0;" x1="346" x2="346" y1="610.9375" y2="615.9375"/>
        <line style="stroke: #000000; stroke-width: 2.0;" x1="396" x2="396" y1="610.9375" y2="615.9375"/>
        <line style="stroke: #000000; stroke-width: 2.0;" x1="446" x2="446" y1="610.9375" y2="615.9375"/>
        <line style="stroke: #000000; stroke-width: 2.0;" x1="496" x2="496" y1="610.9375" y2="615.9375"/>
        <line style="stroke: #000000; stroke-width: 2.0;" x1="546" x2="546" y1="610.9375" y2="615.9375"/>
        <line style="stroke: #000000; stroke-width: 2.0;" x1="596" x2="596" y1="610.9375" y2="615.9375"/>
        <line style="stroke: #000000; stroke-width: 2.0;" x1="646" x2="646" y1="610.9375" y2="615.9375"/>
        <line style="stroke: #000000; stroke-width: 2.0;" x1="696" x2="696" y1="610.9375" y2="615.9375"/>
        <line style="stroke: #000000; stroke-width: 2.0;" x1="746" x2="746" y1="610.9375" y2="615.9375"/>
        <line style="stroke: #000000; stroke-width: 2.0;" x1="796" x2="796" y1="610.9375" y2="615.9375"/>
        <line style="stroke: #000000; stroke-width: 2.0;" x1="846" x2="846" y1="610.9375" y2="615.9375"/>
        <line style="stroke: #000000; stroke-width: 2.0;" x1="896" x2="896" y1="610.9375" y2="615.9375"/>
        <line style="stroke: #000000; stroke-width: 2.0;" x1="946" x2="946" y1="610.9375" y2="615.9375"/>
        <line style="stroke: #000000; stroke-width: 2.0;" x1="996" x2="996" y1="610.9375" y2="615.9375"/>
        <line style="stroke: #000000; stroke-width: 2.0;" x1="1046" x2="1046" y1="610.9375" y2="615.9375"/>
        <line style="stroke: #000000; stroke-width: 2.0;" x1="1096" x2="1096" y1="610.9375" y2="615.9375"/>
        <line style="stroke: #000000; stroke-width: 2.0;" x1="1146" x2="1146" y1="610.9375" y2="615.9375"/>
        <line style="stroke: #000000; stroke-width: 2.0;" x1="1196" x2="1196" y1="610.9375" y2="615.9375"/>
        <line style="stroke: #000000; stroke-width: 2.0;" x1="1246" x2="1246" y1="610.9375" y2="615.9375"/>
        <line style="stroke: #000000; stroke-width: 2.0;" x1="1296" x2="1296" y1="610.9375" y2="615.9375"/>
        <line style="stroke: #000000; stroke-width: 2.0;" x1="1346" x2="1346" y1="610.9375" y2="615.9375"/>
        <line style="stroke: #000000; stroke-width: 2.0;" x1="1396" x2="1396" y1="610.9375" y2="615.9375"/>
        <line style="stroke: #000000; stroke-width: 2.0;" x1="1446" x2="1446" y1="610.9375" y2="615.9375"/>
        <line style="stroke: #000000; stroke-width: 2.0;" x1="1496" x2="1496" y1="610.9375" y2="615.9375"/>
        <line style="stroke: #000000; stroke-width: 2.0;" x1="1546" x2="1546" y1="610.9375" y2="615.9375"/>
        <line style="stroke: #000000; stroke-width: 2.0;" x1="1596" x2="1596" y1="610.9375" y2="615.9375"/>
        <line style="stroke: #000000; stroke-width: 2.0;" x1="1646" x2="1646" y1="610.9375" y2="615.9375"/>
        <line style="stroke: #000000; stroke-width: 2.0;" x1="1696" x2="1696" y1="610.9375" y2="615.9375"/>
        <line style="stroke: #000000; stroke-width: 2.0;" x1="1746" x2="1746" y1="610.9375" y2="615.9375"/>
        <line style="stroke: #000000; stroke-width: 2.0;" x1="1796" x2="1796" y1="610.9375" y2="615.9375"/>
        <line style="stroke: #000000; stroke-width: 2.0;" x1="1846" x2="1846" y1="610.9375" y2="615.9375"/>
        <line style="stroke: #000000; stroke-width: 2.0;" x1="246" x2="1846" y1="610.9375" y2="610.9375"/>
        <text fill="#000000" font-family="sans-serif" font-size="12" lengthAdjust="spacingAndGlyphs" textLength="7" x="242.5" y="629.3945">0</text>
        <text fill="#000000" font-family="sans-serif" font-size="12" lengthAdjust="spacingAndGlyphs" textLength="14" x="289" y="629.3945">10</text>
        <text fill="#000000" font-family="sans-serif" font-size="12" lengthAdjust="spacingAndGlyphs" textLength="14" x="339" y="629.3945">20</text>
        <text fill="#000000" font-family="sans-serif" font-size="12" lengthAdjust="spacingAndGlyphs" textLength="14" x="389" y="629.3945">30</text>
        <text fill="#000000" font-family="sans-serif" font-size="12" lengthAdjust="spacingAndGlyphs" textLength="14" x="439" y="629.3945">40</text>
        <text fill="#000000" font-family="sans-serif" font-size="12" lengthAdjust="spacingAndGlyphs" textLength="14" x="489" y="629.3945">50</text>
        <text fill="#000000" font-family="sans-serif" font-size="12" lengthAdjust="spacingAndGlyphs" textLength="14" x="539" y="629.3945">60</text>
        <text fill="#000000" font-family="sans-serif" font-size="12" lengthAdjust="spacingAndGlyphs" textLength="14" x="589" y="629.3945">70</text>
        <text fill="#000000" font-family="sans-serif" font-size="12" lengthAdjust="spacingAndGlyphs" textLength="14" x="639" y="629.3945">80</text>
        <text fill="#000000" font-family="sans-serif" font-size="12" lengthAdjust="spacingAndGlyphs" textLength="14" x="689" y="629.3945">90</text>
        <text fill="#000000" font-family="sans-serif" font-size="12" lengthAdjust="spacingAndGlyphs" textLength="21" x="985.5" y="629.3945">150</text>
        <text fill="#000000" font-family="sans-serif" font-size="12" lengthAdjust="spacingAndGlyphs" textLength="21" x="1485.5" y="629.3945">250</text>
        <text fill="#000000" font-family="sans-serif" font-size="12" lengthAdjust="spacingAndGlyphs" textLength="21" x="1735.5" y="629.3945">300</text>
        <text fill="#000000" font-family="sans-serif" font-size="12" lengthAdjust="spacingAndGlyphs" textLength="21" x="1785.5" y="629.3945">310</text>
        <line style="stroke: #0000FF; stroke-width: 1.0;" x1="396" x2="421" y1="120.1875" y2="240.375"/>
        <polygon fill="#0000FF" points="416.7902,233.5722,422.1479,232.4578,421,240.375" style="stroke: #0000FF; stroke-width: 1.0;"/>
        <text fill="#0000FF" font-family="Serif" font-size="14" lengthAdjust="spacingAndGlyphs" textLength="94" x="419.4691" y="229.9388">GET local/status</text>
        <line style="stroke: #0000FF; stroke-width: 1.0;" x1="446" x2="471" y1="240.375" y2="340.5625"/>
        <polygon fill="#0000FF" points="466.5252,333.9311,471.8347,332.6062,471,340.5625" style="stroke: #0000FF; stroke-width: 1.0;"/>
        <text fill="#0000FF" font-family="Serif" font-size="14" lengthAdjust="spacingAndGlyphs" textLength="107" x="469.1799" y="330.1924">GET remote/status</text>
        <line style="stroke: #0000FF; stroke-width: 1.0;" x1="496" x2="521" y1="80.1875" y2="480.75"/>
        <polygon fill="#0000FF" points="517.8009,473.4175,523.2626,473.0766,521,480.75" style="stroke: #0000FF; stroke-width: 1.0;"/>
        <text fill="#0000FF" font-family="Serif" font-size="14" lengthAdjust="spacingAndGlyphs" textLength="56" x="520.5317" y="470.1709">Payment1</text>
        <line style="stroke: #0000FF; stroke-width: 1.0;" x1="596" x2="621" y1="440.75" y2="320.5625"/>
        <polygon fill="#0000FF" points="622.1479,328.4797,616.7902,327.3653,621,320.5625" style="stroke: #0000FF; stroke-width: 1.0;"/>
        <text fill="#0000FF" font-family="Serif" font-size="14" lengthAdjust="spacingAndGlyphs" textLength="98" x="619.4691" y="342.5924">Activate payment</text>
        <line style="stroke: #0000FF; stroke-width: 1.0;" x1="646" x2="671" y1="560.9375" y2="420.75"/>
        <polygon fill="#0000FF" points="672.3739,428.6311,666.9865,427.6704,671,420.75" style="stroke: #0000FF; stroke-width: 1.0;"/>
        <text fill="#0000FF" font-family="Serif" font-size="14" lengthAdjust="spacingAndGlyphs" textLength="49" x="669.6802" y="442.8207">Sessions</text>
        <line style="stroke: #0000FF; stroke-width: 1.0;" x1="696" x2="946" y1="60.1875" y2="400.75"/>
        <polygon fill="#0000FF" points="939.3458,396.3091,943.7571,393.0708,946,400.75" style="stroke: #0000FF; stroke-width: 1.0;"/>
        <text fill="#0000FF" font-family="Serif" font-size="14" lengthAdjust="spacingAndGlyphs" textLength="56" x="941.5515" y="391.6138">Payment2</text>
        <line style="stroke: #0000FF; stroke-width: 1.0;" x1="1246" x2="1496" y1="40.1875" y2="400.75"/>
        <polygon fill="#0000FF" points="1489.468,396.1312,1493.9651,393.0131,1496,400.75" style="stroke: #0000FF; stroke-width: 1.0;"/>
        <text fill="#0000FF" font-family="Serif" font-size="14" lengthAdjust="spacingAndGlyphs" textLength="56" x="1491.7165" y="391.496">Paymentx</text>
        <line style="stroke: #0000FF; stroke-width: 1.0;" x1="1746" x2="1771" y1="400.75" y2="300.5625"/>
        <polygon fill="#0000FF" points="1771.8347,308.5188,1766.5252,307.1939,1771,300.5625" style="stroke: #0000FF; stroke-width: 1.0;"/>
        <text fill="#0000FF" font-family="Serif" font-size="14" lengthAdjust="spacingAndGlyphs" textLength="70" x="1769.1799" y="322.5263">Deactivating</text>
        <!--
@startuml
robust "Wallet" as W
robust "HaClient" as HC
robust "HaServer" as HS
robust "Dispatcher" as D
robust "Browser" as B

@0
W is Idle
D is Idle
HC is Idle
HS is "NO_PAYMENT"
B is Idle

@10
W is "Create config"

@20
W is "Run client"

@30
W is "Test local status"
W -> HC@+5 : GET local/status

@40 
W is "Test remote status"
HC is "Connected"
HC -> HS@+5 : GET remote/status

@50
W is "Send payment1"
HS is "NO_PAYMENT"
D is "Waiting for payment"
W -> D@+5 : Payment1

@60
D is "Waiting for first_confirmation,first_minutes"

@70
D is "Confirmed"
D -> HS@+5 : Activate payment
HS is "NOT_SPENDING"

@80
B is "Working"
D is "Waiting for session"
D@80 <-> @90 : Maximum timeout
B -> D@+5 : Sessions

@90
D is "Spending"
HS is "OK"
W@90 <-> @150 : "First period"
W -> D@+50 : Payment2
W is "Send payment2"

@150
HS is "OK"
W@150 <-> @250 : Second period

@250
D is "Spending"
HS is "OK"
W@200 -> D@250 : Paymentx

@300
D -> HS@+5 : Deactivating
W@250 <-> @300 : xth period
W@300 <-> @320 : No credit
 
@310
HS is "NO_PAYMENT"
W is Idle
HC is Idle
D is Idle
B is Idle

@enduml

PlantUML version 2017.11(Wed Apr 19 18:18:59 CEST 2017)
(GPL source distribution)
Java Runtime: Java(TM) SE Runtime Environment
JVM: Java HotSpot(TM) 64-Bit Server VM
Java Version: 1.8.0_101-b13
Operating System: Windows 10
OS Version: 10.0
Default Encoding: Cp1252
Language: en
Country: US
-->
    </g>
</svg>
